<svg xmlns="http://www.w3.org/2000/svg" viewBox="0 0 512 512">
  <rect width="512" height="512" fill="#08171c"/>
  <!-- pond-ice fracture backdrop -->
  <g stroke="#3d6b7a" stroke-width="1.5" opacity="0.5">
    <path d="M60 470 L180 360 L140 300 M452 470 L340 380 L390 300 M256 500 L256 420"/>
  </g>
  <g fill="#cfe0e6">
    <!-- broad hunter shoulders, soaked parka -->
    <path d="M256 312c-76 0-124 34-140 94-6 22-9 48-11 106h302c-2-58-5-84-11-106-16-60-64-94-140-94z"/>
    <!-- head -->
    <path d="M256 128c-44 0-72 32-72 80 0 46 28 84 72 84s72-38 72-84c0-48-28-80-72-80z"/>
    <!-- wet flat hair -->
    <path d="M256 128c-44 0-72 32-72 80l0 6c10-26 34-40 72-40s62 14 72 40l0-6c0-48-28-80-72-80z" fill="#8fa6ad"/>
  </g>
  <!-- waterline stain across face -->
  <path d="M184 226 Q256 214 328 226" stroke="#3d6b7a" stroke-width="5" fill="none" opacity="0.7"/>
  <!-- sunken dark eyes, pinprick light -->
  <g fill="#08171c"><ellipse cx="228" cy="204" rx="16" ry="20"/><ellipse cx="284" cy="204" rx="16" ry="20"/></g>
  <g fill="#8fd4e8"><circle cx="228" cy="206" r="4"/><circle cx="284" cy="206" r="4"/></g>
  <!-- slack mouth, water weed -->
  <path d="M226 262 Q256 274 286 262" stroke="#08171c" stroke-width="7" fill="none"/>
  <path d="M280 268 q14 26 4 52" stroke="#2c4a3e" stroke-width="5" fill="none"/>
  <!-- parka zip + frost -->
  <path d="M256 330 V512" stroke="#08171c" stroke-width="6"/>
  <path d="M176 344 Q256 322 336 344" stroke="#bfeaf6" stroke-width="4" fill="none" opacity="0.7"/>
  <!-- boat hook in fist -->
  <path d="M108 512 L128 330 q2 -18 14 -14 l4 2 q10 4 6 20 L142 512" fill="#8fa6ad"/>
  <path d="M120 336 q-26 -10 -18 -36 q4 -14 20 -12" stroke="#8fa6ad" stroke-width="10" fill="none"/>
</svg>
