<svg xmlns="http://www.w3.org/2000/svg" viewBox="0 0 512 512">
  <defs>
    <radialGradient id="tk" cx="50%" cy="50%" r="50%">
      <stop offset="0%" stop-color="#eafaff"/><stop offset="20%" stop-color="#8fd4e8"/>
      <stop offset="55%" stop-color="#33245a"/><stop offset="100%" stop-color="#050608"/>
    </radialGradient>
    <filter id="w2"><feTurbulence type="fractalNoise" baseFrequency="0.02" numOctaves="2" seed="4" result="n"/>
      <feDisplacementMap in="SourceGraphic" in2="n" scale="16"/></filter>
  </defs>
  <rect width="512" height="512" fill="#050608"/>
  <g transform="translate(256 256)" filter="url(#w2)">
    <circle r="150" fill="url(#tk)"/>
    <g stroke="#eafff2" fill="none" stroke-width="2" opacity="0.9">
      <polygon points="0,-150 130,-75 130,75 0,150 -130,75 -130,-75"/>
      <polygon points="0,-100 87,-50 87,50 0,100 -87,50 -87,-50" transform="rotate(20)"/>
      <polygon points="0,-60 52,-30 52,30 0,60 -52,30 -52,-30" transform="rotate(-14)"/>
    </g>
    <g stroke="#8fd4e8" fill="none" stroke-width="2" opacity="0.7">
      <path d="M0 -150 C 60 -210 -70 -250 20 -300"/>
      <path d="M130 75 C 210 110 250 30 320 130"/>
      <path d="M-130 75 C -210 110 -250 190 -320 120"/>
    </g>
    <circle r="24" fill="#050608"/><circle r="24" fill="none" stroke="#eafff2" stroke-width="1.5"/>
  </g>
</svg>
